<svg xmlns="http://www.w3.org/2000/svg" xmlns:xlink="http://www.w3.org/1999/xlink" viewBox="0 0 160.93 32.35"><defs><style>.cls-1{fill:none;}.cls-2{clip-path:url(#clip-path);}.cls-3,.cls-6{fill:#4360ed;}.cls-4{fill:#4361ed;}.cls-5,.cls-6{isolation:isolate;}.cls-6{font-size:22px;font-family:Poppins-ExtraBold, Poppins;font-weight:800;}</style><clipPath id="clip-path" transform="translate(0.01)"><rect class="cls-1" y="0.8" width="32.95" height="20.96"/></clipPath></defs><g id="레이어_2" data-name="레이어 2"><g id="레이어_1-2" data-name="레이어 1"><g id="그룹_438" data-name="그룹 438"><g class="cls-2"><g id="그룹_1" data-name="그룹 1"><path id="패스_1" data-name="패스 1" class="cls-3" d="M16.05,21.76H7.41a7,7,0,0,1-3.71-1A7.19,7.19,0,0,1,0,14,7.36,7.36,0,0,1,6.28,7a.66.66,0,0,0,.57-.4A10.27,10.27,0,0,1,14.63.93a10.44,10.44,0,0,1,10.6,5,.57.57,0,0,0,.52.33,7.75,7.75,0,0,1,1.77,15.12,8,8,0,0,1-2.43.37H16" transform="translate(0.01)"/><path id="패스_2" data-name="패스 2" class="cls-4" d="M29.2,4.42A1.45,1.45,0,0,1,27.74,3V3a1.46,1.46,0,1,1,2.91-.07V3a1.43,1.43,0,0,1-1.43,1.44h0" transform="translate(0.01)"/></g></g></g><g id="AS-CLOUD" class="cls-5"><text class="cls-6" transform="translate(41.34 18.8)">AS-CLOUD</text></g></g></g></svg>